<svg width="181" height="243" viewBox="0 0 181 243" fill="none" xmlns="http://www.w3.org/2000/svg">
<g filter="url(#filter0_d_2_2448)">
<circle cx="105.928" cy="105.41" r="51.4095" fill="#F7F7F7"/>
<g clip-path="url(#clip0_2_2448)">
<path d="M105.934 78.413H105.921C91.0357 78.413 78.9312 90.5209 78.9312 105.409C78.9219 111.096 80.7219 116.637 84.0706 121.233L80.7062 131.262L91.0829 127.945C95.4846 130.865 100.652 132.417 105.934 132.406C120.819 132.406 132.924 120.295 132.924 105.409C132.924 90.5243 120.819 78.413 105.934 78.413ZM121.643 116.535C120.992 118.374 118.407 119.9 116.345 120.345C114.934 120.645 113.092 120.885 106.889 118.314C98.9557 115.027 93.8467 106.965 93.4485 106.442C93.0672 105.919 90.2427 102.173 90.2427 98.2992C90.2427 94.4252 92.21 92.5389 93.003 91.729C93.6543 91.0642 94.7308 90.7605 95.7634 90.7605C96.0975 90.7605 96.3978 90.7774 96.6678 90.7908C97.4608 90.8246 97.859 90.8718 98.3821 92.1238C99.0334 93.693 100.619 97.5669 100.808 97.9651C101.001 98.3633 101.193 98.9033 100.923 99.4263C100.67 99.9662 100.447 100.206 100.049 100.665C99.6509 101.124 99.273 101.475 98.8748 101.967C98.5103 102.396 98.0986 102.855 98.5576 103.648C99.0165 104.424 100.603 107.012 102.938 109.091C105.951 111.774 108.394 112.631 109.268 112.995C109.92 113.265 110.696 113.201 111.172 112.695C111.776 112.044 112.521 110.964 113.281 109.901C113.821 109.138 114.502 109.044 115.218 109.314C115.947 109.567 119.804 111.473 120.597 111.868C121.39 112.266 121.913 112.455 122.105 112.79C122.294 113.124 122.294 114.693 121.643 116.535Z" fill="#55CD76"/>
</g>
</g>
<defs>
<filter id="filter0_d_2_2448" x="0.518066" y="0" width="242.819" height="242.819" filterUnits="userSpaceOnUse" color-interpolation-filters="sRGB">
<feFlood flood-opacity="0" result="BackgroundImageFix"/>
<feColorMatrix in="SourceAlpha" type="matrix" values="0 0 0 0 0 0 0 0 0 0 0 0 0 0 0 0 0 0 127 0" result="hardAlpha"/>
<feOffset dx="16" dy="16"/>
<feGaussianBlur stdDeviation="35"/>
<feComposite in2="hardAlpha" operator="out"/>
<feColorMatrix type="matrix" values="0 0 0 0 0 0 0 0 0 0 0 0 0 0 0 0 0 0 0.16 0"/>
<feBlend mode="normal" in2="BackgroundImageFix" result="effect1_dropShadow_2_2448"/>
<feBlend mode="normal" in="SourceGraphic" in2="effect1_dropShadow_2_2448" result="shape"/>
</filter>
<clipPath id="clip0_2_2448">
<rect width="53.9928" height="53.9928" fill="white" transform="translate(78.9313 78.4131)"/>
</clipPath>
</defs>
</svg>
