<svg width="33" height="33" viewBox="0 0 33 33" fill="none" xmlns="http://www.w3.org/2000/svg">
<g clip-path="url(#clip0_2_844)">
<path fill-rule="evenodd" clip-rule="evenodd" d="M32.3532 16.6345C32.3532 25.4711 25.1898 32.6345 16.3532 32.6345C7.51665 32.6345 0.35321 25.4711 0.35321 16.6345C0.35321 7.79797 7.51665 0.634521 16.3532 0.634521C25.1898 0.634521 32.3532 7.79797 32.3532 16.6345ZM18.0113 5.54555H21.5557H21.5574V9.3705C21.3545 9.37168 20.7509 9.37125 20.1982 9.37086C19.94 9.37067 19.693 9.3705 19.5031 9.3705C19.5005 9.3705 19.4965 9.37041 19.4911 9.3703C19.3424 9.36724 18.174 9.34322 18.174 10.5064C18.1816 10.9985 18.174 12.6931 18.174 12.6931H21.5712L21.296 16.5025H18.2534V27.7232H13.6437V16.576H11.1351V12.7039H13.5684C13.5684 12.3141 13.5696 11.9391 13.5708 11.5721C13.573 10.861 13.5752 10.1798 13.5684 9.4791C13.5684 6.43019 15.908 5.54555 18.0113 5.54555Z" fill="#EBEBEB"/>
</g>
<defs>
<clipPath id="clip0_2_844">
<rect width="32" height="32" fill="white" transform="translate(0.35321 0.634521)"/>
</clipPath>
</defs>
</svg>
