<svg width="33" height="33" viewBox="0 0 33 33" fill="none" xmlns="http://www.w3.org/2000/svg">
<g clip-path="url(#clip0_2_845)">
<path d="M22.8499 11.2904C22.7111 10.9308 22.4984 10.6043 22.2257 10.3319C21.953 10.0595 21.6263 9.8472 21.2666 9.70874C20.7712 9.52528 20.2481 9.42831 19.7199 9.42207C18.8416 9.38207 18.5782 9.37207 16.3532 9.37207C14.1282 9.37207 13.8649 9.38207 12.9865 9.42207C12.4578 9.42812 11.9341 9.52509 11.4382 9.70874C11.0786 9.84758 10.7521 10.0602 10.4797 10.3329C10.2073 10.6056 9.99499 10.9323 9.85653 11.2921C9.67308 11.7874 9.57611 12.3106 9.56987 12.8387C9.52987 13.7171 9.51987 13.9804 9.51987 16.2054C9.51987 18.4304 9.52987 18.6938 9.56987 19.5721C9.57592 20.1008 9.67289 20.6246 9.85653 21.1204C9.99537 21.48 10.208 21.8065 10.4807 22.079C10.7534 22.3514 11.0801 22.5636 11.4399 22.7021C11.9352 22.8856 12.4584 22.9825 12.9865 22.9888C13.8649 23.0288 14.1282 23.0388 16.3532 23.0388C18.5782 23.0388 18.8416 23.0288 19.7199 22.9888C20.2486 22.9827 20.7724 22.8857 21.2682 22.7021C21.6278 22.5633 21.9543 22.3506 22.2268 22.0779C22.4992 21.8052 22.7114 21.4785 22.8499 21.1188C23.0334 20.6234 23.1303 20.1003 23.1366 19.5721C23.1766 18.6938 23.1866 18.4304 23.1866 16.2054C23.1866 13.9804 23.1766 13.7171 23.1366 12.8387C23.1305 12.31 23.0335 11.7863 22.8499 11.2904ZM16.3532 20.4854C15.5067 20.4854 14.6792 20.2344 13.9754 19.7641C13.2715 19.2938 12.7229 18.6254 12.399 17.8433C12.0751 17.0612 11.9903 16.2007 12.1554 15.3704C12.3206 14.5402 12.7282 13.7776 13.3268 13.179C13.9254 12.5804 14.688 12.1728 15.5182 12.0076C16.3485 11.8425 17.209 11.9273 17.9911 12.2512C18.7732 12.5752 19.4416 13.1237 19.9119 13.8276C20.3822 14.5314 20.6332 15.3589 20.6332 16.2054C20.6332 17.3406 20.1823 18.4292 19.3796 19.2318C18.577 20.0345 17.4883 20.4854 16.3532 20.4854V20.4854ZM20.8016 12.7571C20.6038 12.7571 20.4104 12.6984 20.246 12.5885C20.0815 12.4787 19.9534 12.3225 19.8777 12.1398C19.802 11.957 19.7822 11.756 19.8208 11.562C19.8594 11.368 19.9546 11.1898 20.0945 11.05C20.2343 10.9101 20.4125 10.8149 20.6065 10.7763C20.8005 10.7377 21.0015 10.7575 21.1842 10.8332C21.367 10.9089 21.5232 11.0371 21.633 11.2015C21.7429 11.366 21.8016 11.5593 21.8016 11.7571C21.8016 12.0223 21.6962 12.2766 21.5087 12.4642C21.3211 12.6517 21.0668 12.7571 20.8016 12.7571V12.7571Z" fill="#EBEBEB"/>
<path d="M16.3532 18.9833C17.8874 18.9833 19.131 17.7396 19.131 16.2054C19.131 14.6713 17.8874 13.4276 16.3532 13.4276C14.8191 13.4276 13.5754 14.6713 13.5754 16.2054C13.5754 17.7396 14.8191 18.9833 16.3532 18.9833Z" fill="#EBEBEB"/>
<path d="M16.3532 0.205322C13.1887 0.205322 10.0952 1.14371 7.46402 2.90182C4.83283 4.65992 2.78206 7.15879 1.57106 10.0824C0.360051 13.006 0.0431972 16.2231 0.660562 19.3268C1.27793 22.4305 2.80178 25.2815 5.03943 27.5191C7.27708 29.7568 10.128 31.2806 13.2317 31.898C16.3354 32.5153 19.5525 32.1985 22.4761 30.9875C25.3997 29.7765 27.8986 27.7257 29.6567 25.0945C31.4148 22.4633 32.3532 19.3699 32.3532 16.2054C32.3532 14.1042 31.9394 12.0236 31.1353 10.0824C30.3312 8.1412 29.1527 6.37737 27.6669 4.89163C26.1812 3.40588 24.4173 2.22733 22.4761 1.42325C20.5349 0.619176 18.4543 0.205322 16.3532 0.205322V0.205322ZM24.6365 19.642C24.6222 20.333 24.4909 21.0166 24.2482 21.6637C24.0342 22.2172 23.7068 22.7198 23.2872 23.1394C22.8676 23.559 22.365 23.8863 21.8115 24.1004C21.1644 24.3431 20.4808 24.4744 19.7898 24.4887C18.8998 24.5287 18.6165 24.5387 16.3532 24.5387C14.0898 24.5387 13.8065 24.5287 12.9165 24.4887C12.2255 24.4744 11.5419 24.3431 10.8948 24.1004C10.3414 23.8863 9.83871 23.559 9.41911 23.1394C8.9995 22.7198 8.67219 22.2172 8.45815 21.6637C8.21542 21.0166 8.08411 20.333 8.06981 19.642C8.02981 18.752 8.01981 18.4687 8.01981 16.2054C8.01981 13.942 8.02981 13.6587 8.06981 12.7687C8.08411 12.0777 8.21542 11.3941 8.45815 10.747C8.67219 10.1936 8.9995 9.69091 9.41911 9.2713C9.83871 8.8517 10.3414 8.52439 10.8948 8.31034C11.5419 8.06761 12.2255 7.93631 12.9165 7.92201C13.8065 7.88201 14.0898 7.87201 16.3532 7.87201C18.6165 7.87201 18.8998 7.88201 19.7898 7.92201C20.4808 7.93631 21.1644 8.06761 21.8115 8.31034C22.365 8.52439 22.8676 8.8517 23.2872 9.2713C23.7068 9.69091 24.0342 10.1936 24.2482 10.747C24.4909 11.3941 24.6222 12.0777 24.6365 12.7687C24.6765 13.6587 24.6865 13.942 24.6865 16.2054C24.6865 18.4687 24.6765 18.752 24.6365 19.642V19.642Z" fill="#EBEBEB"/>
</g>
<defs>
<clipPath id="clip0_2_845">
<rect width="32" height="32" fill="white" transform="translate(0.35321 0.205322)"/>
</clipPath>
</defs>
</svg>
