<svg width="41" height="40" viewBox="0 0 41 40" fill="none" xmlns="http://www.w3.org/2000/svg">
<path d="M16.1882 6.71019C16.1882 7.23729 16.2693 8.04822 16.9992 8.77806C17.6479 9.4268 19.7969 10.8865 19.878 10.9676C19.959 11.0081 20.0401 11.0487 20.1212 11.0487C20.2023 11.0487 20.2834 11.0081 20.3645 10.9676C20.4456 10.8865 22.5946 9.46734 23.2433 8.77806C23.9731 8.04822 24.0542 7.23729 24.0542 6.71019C24.0542 5.4938 23.0811 4.52069 21.8647 4.52069C21.216 4.52069 20.5672 4.8856 20.1618 5.45325C19.7563 4.8856 19.1076 4.52069 18.3777 4.52069C17.2019 4.52069 16.1882 5.4938 16.1882 6.71019Z" fill="#FF5252"/>
<g clip-path="url(#clip0_2_36)">
<path d="M30.8867 32.08L24.1918 33.7537H14.1495L7.45459 32.08V30.4062H30.8867V32.08ZM32.0583 15.3427H29.213V13.669H9.12831V22.0376C9.12831 24.5482 10.4673 26.7241 12.4758 27.7283V28.7325H25.8655V27.7283C27.3719 26.8914 28.5435 25.3851 29.0456 23.7114H29.213C33.0626 23.7114 34.0668 20.3639 34.2342 17.8533C34.4015 16.5143 33.3973 15.3427 32.0583 15.3427ZM29.213 22.0376V17.0165H32.0583C32.2257 17.0165 32.3931 17.1838 32.3931 17.1838C32.3931 17.1838 32.5604 17.3512 32.5604 17.6859C32.2257 22.0376 29.8825 22.0376 29.213 22.0376Z" fill="#F2F2F2"/>
</g>
<defs>
<clipPath id="clip0_2_36">
<rect width="26.7796" height="26.7796" fill="white" transform="translate(7.45459 10.3216)"/>
</clipPath>
</defs>
</svg>
