<svg width="70" height="25" viewBox="0 0 70 25" fill="none" xmlns="http://www.w3.org/2000/svg">
<path d="M14.9562 6.35025H10.8109C10.7815 6.00726 10.7031 5.69612 10.5757 5.41683C10.4532 5.13753 10.2817 4.89744 10.0612 4.69654C9.84558 4.49075 9.58343 4.33395 9.27474 4.22615C8.96605 4.11346 8.6157 4.05711 8.22371 4.05711C7.53773 4.05711 6.95709 4.2237 6.4818 4.5569C6.01141 4.89009 5.65372 5.36783 5.40873 5.99011C5.16863 6.6124 5.04859 7.35963 5.04859 8.23181C5.04859 9.15299 5.17108 9.92472 5.41608 10.547C5.66597 11.1644 6.02611 11.6299 6.4965 11.9435C6.96689 12.2522 7.53283 12.4065 8.19431 12.4065C8.57161 12.4065 8.9097 12.36 9.20859 12.2669C9.50748 12.1689 9.76718 12.0292 9.98767 11.8479C10.2082 11.6666 10.387 11.4486 10.5242 11.1938C10.6663 10.9341 10.7619 10.6426 10.8109 10.3192L14.9562 10.3486C14.9072 10.9855 14.7283 11.6348 14.4196 12.2963C14.1109 12.9529 13.6724 13.5604 13.104 14.119C12.5405 14.6727 11.8423 15.1186 11.0093 15.4567C10.1763 15.7948 9.20859 15.9638 8.10612 15.9638C6.72435 15.9638 5.48468 15.6674 4.3871 15.0745C3.29443 14.4816 2.4296 13.6094 1.79261 12.458C1.16053 11.3065 0.844482 9.89777 0.844482 8.23181C0.844482 6.55605 1.16787 5.14488 1.81466 3.99831C2.46145 2.84683 3.33363 1.9771 4.4312 1.38912C5.52877 0.796232 6.75375 0.499789 8.10612 0.499789C9.05669 0.499789 9.93132 0.629636 10.73 0.88933C11.5287 1.14902 12.2294 1.52877 12.8321 2.02855C13.4347 2.52344 13.9198 3.13348 14.2873 3.85866C14.6548 4.58385 14.8778 5.41438 14.9562 6.35025Z" fill="white"/>
<path d="M36.5665 4.4687V7.40863H29.0109V4.4687H36.5665ZM30.4514 15.758V4.14531C30.4514 3.21433 30.618 2.44259 30.9512 1.83011C31.2844 1.21762 31.7548 0.759483 32.3624 0.45569C32.97 0.151897 33.6854 0 34.5085 0C35.023 0 35.5228 0.0391995 36.0079 0.117598C36.4979 0.195997 36.8605 0.264595 37.0957 0.323393L36.5077 3.23393C36.3607 3.18983 36.1892 3.15553 35.9932 3.13103C35.7972 3.10163 35.6257 3.08693 35.4787 3.08693C35.0965 3.08693 34.8393 3.16778 34.707 3.32947C34.5747 3.49117 34.5085 3.70431 34.5085 3.96891V15.758H30.4514Z" fill="white"/>
<path d="M44.8939 4.4687V7.40863H37.3382V4.4687H44.8939ZM38.7788 15.758V4.14531C38.7788 3.21433 38.9454 2.44259 39.2786 1.83011C39.6118 1.21762 40.0822 0.759483 40.6898 0.45569C41.2973 0.151897 42.0127 0 42.8359 0C43.3504 0 43.8502 0.0391995 44.3353 0.117598C44.8253 0.195997 45.1879 0.264595 45.423 0.323393L44.8351 3.23393C44.6881 3.18983 44.5166 3.15553 44.3206 3.13103C44.1246 3.10163 43.9531 3.08693 43.8061 3.08693C43.4239 3.08693 43.1666 3.16778 43.0343 3.32947C42.9021 3.49117 42.8359 3.70431 42.8359 3.96891V15.758H38.7788Z" fill="white"/>
<path d="M51.5252 15.9638C50.3199 15.9638 49.2811 15.7335 48.4089 15.2729C47.5416 14.8075 46.8728 14.1411 46.4024 13.2738C45.9369 12.4016 45.7042 11.3579 45.7042 10.1428C45.7042 8.97659 45.9394 7.95742 46.4098 7.08524C46.8801 6.21306 47.5441 5.53442 48.4016 5.04933C49.259 4.56425 50.2709 4.3217 51.437 4.3217C52.2896 4.3217 53.0614 4.454 53.7522 4.71859C54.4431 4.98319 55.0336 5.36783 55.5236 5.87252C56.0135 6.3723 56.3908 6.97989 56.6554 7.69527C56.92 8.41066 57.0523 9.21669 57.0523 10.1134V11.0541H46.9683V8.8198H53.3186C53.3137 8.4964 53.2304 8.21221 53.0687 7.96722C52.9119 7.71732 52.6988 7.52378 52.4293 7.38658C52.1647 7.24448 51.8633 7.17343 51.5252 7.17343C51.197 7.17343 50.8956 7.24448 50.6212 7.38658C50.3468 7.52378 50.1263 7.71487 49.9597 7.95987C49.798 8.20486 49.7123 8.4915 49.7025 8.8198V11.2305C49.7025 11.5931 49.7784 11.9165 49.9303 12.2007C50.0822 12.4849 50.3003 12.7079 50.5845 12.8696C50.8687 13.0313 51.2116 13.1121 51.6134 13.1121C51.8927 13.1121 52.1475 13.0729 52.3778 12.9945C52.613 12.9161 52.8139 12.8034 52.9805 12.6564C53.1471 12.5045 53.2696 12.3232 53.348 12.1125H57.0523C56.9249 12.8965 56.6236 13.5776 56.1483 14.1558C55.673 14.7291 55.0434 15.175 54.2594 15.4934C53.4803 15.807 52.5689 15.9638 51.5252 15.9638Z" fill="white"/>
<path d="M64.1173 15.9638C62.912 15.9638 61.8732 15.7335 61.001 15.2729C60.1337 14.8075 59.4649 14.1411 58.9945 13.2738C58.529 12.4016 58.2963 11.3579 58.2963 10.1428C58.2963 8.97659 58.5315 7.95742 59.0019 7.08524C59.4722 6.21306 60.1362 5.53442 60.9937 5.04933C61.8511 4.56425 62.863 4.3217 64.0291 4.3217C64.8817 4.3217 65.6535 4.454 66.3443 4.71859C67.0352 4.98319 67.6257 5.36783 68.1156 5.87252C68.6056 6.3723 68.9829 6.97989 69.2475 7.69527C69.5121 8.41066 69.6444 9.21669 69.6444 10.1134V11.0541H59.5604V8.8198H65.9107C65.9058 8.4964 65.8225 8.21221 65.6608 7.96722C65.504 7.71732 65.2909 7.52378 65.0214 7.38658C64.7568 7.24448 64.4554 7.17343 64.1173 7.17343C63.7891 7.17343 63.4877 7.24448 63.2133 7.38658C62.9389 7.52378 62.7184 7.71487 62.5518 7.95987C62.3901 8.20486 62.3044 8.4915 62.2946 8.8198V11.2305C62.2946 11.5931 62.3705 11.9165 62.5224 12.2007C62.6743 12.4849 62.8924 12.7079 63.1766 12.8696C63.4608 13.0313 63.8037 13.1121 64.2055 13.1121C64.4848 13.1121 64.7396 13.0729 64.9699 12.9945C65.2051 12.9161 65.406 12.8034 65.5726 12.6564C65.7392 12.5045 65.8617 12.3232 65.9401 12.1125H69.6444C69.517 12.8965 69.2157 13.5776 68.7404 14.1558C68.2651 14.7291 67.6355 15.175 66.8515 15.4934C66.0724 15.807 65.161 15.9638 64.1173 15.9638Z" fill="white"/>
<path d="M46.6602 23.1616H45.1978V18.4227H46.725C47.1847 18.4227 47.578 18.5176 47.9051 18.7073C48.2321 18.8955 48.4828 19.1662 48.6571 19.5195C48.8314 19.8712 48.9186 20.2923 48.9186 20.7829C48.9186 21.2765 48.8306 21.7015 48.6548 22.0579C48.4789 22.4127 48.2228 22.6857 47.8865 22.877C47.5503 23.0668 47.1415 23.1616 46.6602 23.1616ZM45.7716 22.6526H46.6231C47.015 22.6526 47.3397 22.577 47.5973 22.4258C47.8549 22.2746 48.047 22.0594 48.1735 21.7802C48.3 21.501 48.3632 21.1686 48.3632 20.7829C48.3632 20.4003 48.3007 20.071 48.1758 19.7948C48.0508 19.5172 47.8642 19.3043 47.6158 19.1562C47.3675 19.0066 47.0582 18.9317 46.6879 18.9317H45.7716V22.6526Z" fill="white"/>
<path d="M51.2973 23.2357C50.9548 23.2357 50.6594 23.1601 50.4111 23.0089C50.1642 22.8562 49.9737 22.6433 49.8395 22.3703C49.7068 22.0957 49.6405 21.7763 49.6405 21.4123C49.6405 21.0482 49.7068 20.7274 49.8395 20.4497C49.9737 20.1705 50.1604 19.953 50.3995 19.7972C50.6401 19.6398 50.9209 19.5611 51.2418 19.5611C51.4269 19.5611 51.6097 19.592 51.7902 19.6537C51.9706 19.7154 52.1349 19.8157 52.283 19.9545C52.4311 20.0918 52.5491 20.2738 52.6371 20.5006C52.725 20.7274 52.769 21.0066 52.769 21.3382V21.5696H50.0293V21.0976H52.2136C52.2136 20.897 52.1735 20.7181 52.0933 20.5608C52.0146 20.4034 51.902 20.2792 51.7554 20.1882C51.6104 20.0972 51.4392 20.0517 51.2418 20.0517C51.0242 20.0517 50.836 20.1057 50.6772 20.2137C50.5198 20.3201 50.3987 20.4589 50.3139 20.6302C50.229 20.8014 50.1866 20.985 50.1866 21.1809V21.4956C50.1866 21.764 50.2329 21.9915 50.3254 22.1782C50.4195 22.3633 50.5499 22.5045 50.7165 22.6016C50.8831 22.6973 51.0767 22.7451 51.2973 22.7451C51.4408 22.7451 51.5703 22.7251 51.686 22.685C51.8033 22.6433 51.9043 22.5816 51.9892 22.4998C52.074 22.4165 52.1396 22.3132 52.1858 22.1898L52.7134 22.3379C52.6579 22.5168 52.5646 22.6742 52.4334 22.8099C52.3023 22.9441 52.1403 23.049 51.9475 23.1246C51.7547 23.1986 51.5379 23.2357 51.2973 23.2357Z" fill="white"/>
<path d="M54.1457 18.4227V23.1616H53.5997V18.4227H54.1457Z" fill="white"/>
<path d="M55.1459 23.1616V19.6074H55.692V23.1616H55.1459ZM55.4236 19.015C55.3172 19.015 55.2254 18.9788 55.1483 18.9063C55.0727 18.8338 55.0349 18.7466 55.0349 18.6448C55.0349 18.543 55.0727 18.4558 55.1483 18.3833C55.2254 18.3108 55.3172 18.2746 55.4236 18.2746C55.5301 18.2746 55.6211 18.3108 55.6967 18.3833C55.7738 18.4558 55.8124 18.543 55.8124 18.6448C55.8124 18.7466 55.7738 18.8338 55.6967 18.9063C55.6211 18.9788 55.5301 19.015 55.4236 19.015Z" fill="white"/>
<path d="M59.5985 19.6074L58.2842 23.1616H57.7289L56.4146 19.6074H57.0069L57.988 22.4397H58.0251L59.0062 19.6074H59.5985Z" fill="white"/>
<path d="M61.6822 23.2357C61.3398 23.2357 61.0444 23.1601 60.796 23.0089C60.5492 22.8562 60.3587 22.6433 60.2245 22.3703C60.0918 22.0957 60.0255 21.7763 60.0255 21.4123C60.0255 21.0482 60.0918 20.7274 60.2245 20.4497C60.3587 20.1705 60.5453 19.953 60.7844 19.7972C61.0251 19.6398 61.3058 19.5611 61.6267 19.5611C61.8118 19.5611 61.9946 19.592 62.1751 19.6537C62.3556 19.7154 62.5199 19.8157 62.668 19.9545C62.8161 20.0918 62.9341 20.2738 63.022 20.5006C63.1099 20.7274 63.1539 21.0066 63.1539 21.3382V21.5696H60.4142V21.0976H62.5986C62.5986 20.897 62.5584 20.7181 62.4782 20.5608C62.3996 20.4034 62.2869 20.2792 62.1404 20.1882C61.9954 20.0972 61.8242 20.0517 61.6267 20.0517C61.4092 20.0517 61.221 20.1057 61.0621 20.2137C60.9047 20.3201 60.7837 20.4589 60.6988 20.6302C60.614 20.8014 60.5715 20.985 60.5715 21.1809V21.4956C60.5715 21.764 60.6178 21.9915 60.7104 22.1782C60.8045 22.3633 60.9348 22.5045 61.1014 22.6016C61.268 22.6973 61.4616 22.7451 61.6822 22.7451C61.8257 22.7451 61.9553 22.7251 62.071 22.685C62.1882 22.6433 62.2893 22.5816 62.3741 22.4998C62.4589 22.4165 62.5245 22.3132 62.5708 22.1898L63.0984 22.3379C63.0428 22.5168 62.9495 22.6742 62.8184 22.8099C62.6873 22.9441 62.5253 23.049 62.3324 23.1246C62.1396 23.1986 61.9229 23.2357 61.6822 23.2357Z" fill="white"/>
<path d="M63.9846 23.1616V19.6074H64.5122V20.1442H64.5492C64.614 19.9684 64.7312 19.8257 64.9009 19.7162C65.0706 19.6066 65.2619 19.5519 65.4748 19.5519C65.5149 19.5519 65.565 19.5527 65.6252 19.5542C65.6853 19.5557 65.7308 19.5581 65.7617 19.5611V20.1165C65.7432 20.1119 65.7008 20.1049 65.6344 20.0957C65.5696 20.0849 65.501 20.0795 65.4285 20.0795C65.2557 20.0795 65.1015 20.1157 64.9657 20.1882C64.8315 20.2592 64.7251 20.3579 64.6464 20.4844C64.5693 20.6094 64.5307 20.752 64.5307 20.9125V23.1616H63.9846Z" fill="white"/>
<path d="M66.8689 24.4944C66.7764 24.4944 66.6938 24.4867 66.6213 24.4713C66.5488 24.4574 66.4987 24.4435 66.4709 24.4297L66.6098 23.9484C66.7424 23.9823 66.8597 23.9946 66.9615 23.9854C67.0633 23.9761 67.1535 23.9306 67.2322 23.8489C67.3124 23.7686 67.3857 23.6383 67.452 23.4578L67.5538 23.1801L66.2395 19.6074H66.8319L67.813 22.4397H67.85L68.8311 19.6074H69.4235L67.9148 23.6799C67.8469 23.8635 67.7629 24.0155 67.6626 24.1358C67.5623 24.2577 67.4459 24.3479 67.3132 24.4065C67.1821 24.4651 67.034 24.4944 66.8689 24.4944Z" fill="white"/>
<g clip-path="url(#clip0_2_23)">
<path d="M19.8472 4.63241C19.8472 4.84972 19.8806 5.18404 20.1815 5.48493C20.4489 5.75238 21.3349 6.35416 21.3683 6.38759C21.4018 6.40431 21.4352 6.42102 21.4686 6.42102C21.502 6.42102 21.5355 6.40431 21.5689 6.38759C21.6023 6.35416 22.4883 5.7691 22.7557 5.48493C23.0566 5.18404 23.0901 4.84972 23.0901 4.63241C23.0901 4.13093 22.6889 3.72975 22.1874 3.72975C21.9199 3.72975 21.6525 3.8802 21.4853 4.11422C21.3182 3.8802 21.0507 3.72975 20.7498 3.72975C20.2651 3.72975 19.8472 4.13093 19.8472 4.63241Z" fill="#FF5252"/>
</g>
<g clip-path="url(#clip1_2_23)">
<path d="M25.9066 15.0916L23.1466 15.7816H19.0064L16.2463 15.0916V14.4015H25.9066V15.0916ZM26.3897 8.19133H25.2166V7.50131H16.9364V10.9514C16.9364 11.9865 17.4884 12.8835 18.3164 13.2975V13.7115H23.8366V13.2975C24.4576 12.9525 24.9406 12.3315 25.1476 11.6414H25.2166C26.8037 11.6414 27.2177 10.2614 27.2867 9.22637C27.3557 8.67435 26.9417 8.19133 26.3897 8.19133ZM25.2166 10.9514V8.88136H26.3897C26.4587 8.88136 26.5277 8.95036 26.5277 8.95036C26.5277 8.95036 26.5967 9.01936 26.5967 9.15737C26.4587 10.9514 25.4926 10.9514 25.2166 10.9514Z" fill="#F2F2F2"/>
</g>
<defs>
<clipPath id="clip0_2_23">
<rect width="4.01183" height="4.01183" fill="white" transform="translate(19.4792 3.06113)"/>
</clipPath>
<clipPath id="clip1_2_23">
<rect width="11.0404" height="11.0404" fill="white" transform="translate(16.2463 6.12126)"/>
</clipPath>
</defs>
</svg>
