<svg width="33" height="33" viewBox="0 0 33 33" fill="none" xmlns="http://www.w3.org/2000/svg">
<path fill-rule="evenodd" clip-rule="evenodd" d="M32.3532 16.8733C32.3532 25.7098 25.1898 32.8733 16.3532 32.8733C7.51665 32.8733 0.35321 25.7098 0.35321 16.8733C0.35321 8.03674 7.51665 0.873291 16.3532 0.873291C25.1898 0.873291 32.3532 8.03674 32.3532 16.8733ZM24.1946 11.1717C25.0469 11.0699 25.8574 10.8435 26.6121 10.5086C26.0462 11.3549 25.3341 12.0937 24.5092 12.6904C24.518 12.871 24.522 13.0522 24.522 13.2348C24.522 18.7968 20.288 25.2105 12.5463 25.2105C10.1692 25.2105 7.95722 24.5132 6.09421 23.3186C6.42367 23.3583 6.75926 23.3786 7.09882 23.3786C9.07027 23.3786 10.8854 22.7054 12.326 21.5762C10.4846 21.5418 8.93015 20.325 8.39452 18.6533C8.65188 18.7017 8.91532 18.7274 9.18686 18.7274C9.57091 18.7274 9.94214 18.6768 10.2959 18.5799C8.37023 18.1931 6.91959 16.4925 6.91959 14.4529V14.3998C7.50408 14.7248 8.15789 14.9053 8.82638 14.926C7.69715 14.1714 6.95398 12.8831 6.95398 11.423C6.95398 10.6516 7.16146 9.92856 7.52395 9.3067C9.59987 11.8529 12.7013 13.5286 16.1995 13.7044C16.1281 13.3958 16.091 13.0744 16.091 12.7449C16.091 10.4197 17.9757 8.53588 20.2995 8.53588C21.5102 8.53588 22.6045 9.04657 23.3719 9.86456C24.3149 9.67934 25.2191 9.33385 26.0454 8.84311C25.7307 9.82544 25.0644 10.6508 24.1946 11.1717Z" fill="#EBEBEB"/>
</svg>
