<svg width="33" height="33" viewBox="0 0 33 33" fill="none" xmlns="http://www.w3.org/2000/svg">
<path d="M16.3571 0.205322H16.3491C7.52711 0.205322 0.353109 7.38132 0.353109 16.2053C0.347631 19.5753 1.41441 22.8597 3.39911 25.5833L1.40511 31.5273L7.55511 29.5613C10.1639 31.2921 13.2265 32.212 16.3571 32.2053C25.1791 32.2053 32.3531 25.0273 32.3531 16.2053C32.3531 7.38332 25.1791 0.205322 16.3571 0.205322V0.205322ZM25.6671 22.7993C25.2811 23.8893 23.7491 24.7933 22.5271 25.0573C21.6911 25.2353 20.5991 25.3773 16.9231 23.8533C12.2211 21.9053 9.19311 17.1273 8.95711 16.8173C8.73111 16.5073 7.05711 14.2873 7.05711 11.9913C7.05711 9.69532 8.22311 8.57732 8.69311 8.09732C9.07911 7.70332 9.71711 7.52332 10.3291 7.52332C10.5271 7.52332 10.7051 7.53332 10.8651 7.54132C11.3351 7.56132 11.5711 7.58932 11.8811 8.33132C12.2671 9.26132 13.2071 11.5573 13.3191 11.7933C13.4331 12.0293 13.5471 12.3493 13.3871 12.6593C13.2371 12.9793 13.1051 13.1213 12.8691 13.3933C12.6331 13.6653 12.4091 13.8733 12.1731 14.1653C11.9571 14.4193 11.7131 14.6913 11.9851 15.1613C12.2571 15.6213 13.1971 17.1553 14.5811 18.3873C16.3671 19.9773 17.8151 20.4853 18.3331 20.7013C18.7191 20.8613 19.1791 20.8233 19.4611 20.5233C19.8191 20.1373 20.2611 19.4973 20.7111 18.8673C21.0311 18.4153 21.4351 18.3593 21.8591 18.5193C22.2911 18.6693 24.5771 19.7993 25.0471 20.0333C25.5171 20.2693 25.8271 20.3813 25.9411 20.5793C26.0531 20.7773 26.0531 21.7073 25.6671 22.7993V22.7993Z" fill="#EBEBEB"/>
</svg>
